# xmcd
#
# Track frame offsets:
# 183
# 21568
# 39583
# 52393
# 75718
# 92675
# 112518
# 134035
# 149323
# 170040
# 184665
# 204515
# 234570
#
# Disc length: 3309 seconds
#
#
# Revision: 5
# Processed by: cddbd v1.5.1PL0 Copyright (c) Steve Scherf et al.
# Submitted via: FreeRIP 2.942 
#
DISCID=ba0ceb0d
DTITLE=Joaquín Sabina - Esta boca es mía
DYEAR=1994
DGENRE=Slow Rock
TTITLE0=Esta noche contigo
TTITLE1=Por el bulevar de los sueños rotos
TTITLE2=Incluso en estos tiempos
TTITLE3=Siete crisantemos
TTITLE4=Besos con sal
TTITLE5=Ruido
TTITLE6=El blues de lo que pasa en mi escalera
TTITLE7=Como un explorador
TTITLE8=Mujeres fatal
TTITLE9=Ganas de...
TTITLE10=La casa por la ventana
TTITLE11=Más de cien mentiras
TTITLE12=Esta boca es mía
EXTD=
EXTT0=
EXTT1=
EXTT2=
EXTT3=
EXTT4=
EXTT5=
EXTT6=
EXTT7=
EXTT8=
EXTT9=
EXTT10=
EXTT11=
EXTT12=
PLAYORDER=
